<?xml version="1.0" standalone="no"?>
<!DOCTYPE svg PUBLIC "-//W3C//DTD SVG 20010904//EN"
 "http://www.w3.org/TR/2001/REC-SVG-20010904/DTD/svg10.dtd">
<svg version="1.0" xmlns="http://www.w3.org/2000/svg"
 width="969.000000pt" height="236.000000pt" viewBox="0 0 969.000000 236.000000"
 preserveAspectRatio="xMidYMid meet">

<g transform="translate(0.000000,236.000000) scale(0.100000,-0.100000)"
fill="#000000" stroke="none">
<path d="M1370 1941 c-113 -19 -261 -89 -357 -170 -77 -64 -163 -171 -197
-246 -41 -89 -56 -125 -56 -139 0 -7 -9 -42 -21 -77 -16 -51 -20 -83 -17 -160
2 -53 9 -103 15 -110 6 -8 14 -30 17 -49 13 -66 63 -181 112 -255 40 -61 142
-164 204 -206 64 -43 185 -99 239 -110 25 -5 71 -14 101 -20 112 -23 281 4
415 65 208 96 347 250 426 476 21 58 23 84 24 230 0 172 -3 188 -60 323 -81
193 -268 358 -482 426 -74 24 -278 36 -363 22z m307 -50 c92 -22 115 -32 208
-85 108 -64 247 -211 270 -287 4 -13 16 -43 27 -67 11 -23 18 -48 15 -55 -3
-8 -40 -36 -83 -65 -44 -28 -84 -56 -91 -61 -6 -6 -23 -13 -37 -17 -14 -3 -23
-10 -21 -15 8 -11 67 1 83 18 7 7 22 13 32 13 10 0 21 4 24 9 11 17 93 51 109
46 8 -4 18 -16 21 -28 14 -51 17 -156 7 -207 -6 -30 -16 -77 -21 -105 -6 -27
-31 -92 -57 -144 -71 -144 -180 -248 -355 -341 -9 -5 -45 -19 -80 -32 -55 -19
-83 -22 -218 -22 -131 -1 -165 3 -221 21 -68 22 -171 74 -196 99 -8 8 -18 14
-23 14 -20 0 -147 141 -175 194 l-30 57 25 20 c14 11 39 26 55 34 30 13 30 13
4 14 -14 1 -34 -6 -45 -14 -46 -35 -72 -11 -103 92 -18 56 -22 97 -22 190 -1
124 2 142 32 235 75 237 272 421 524 489 87 23 245 23 342 0z"/>
<path d="M1278 1484 l-28 -15 -2 -217 c-4 -331 -1 -403 20 -418 26 -20 201
-19 209 1 9 25 -3 30 -90 35 -76 5 -82 7 -88 30 -9 33 -9 478 0 510 l7 25 196
3 c168 2 198 0 212 -14 14 -13 16 -49 16 -257 0 -175 -4 -249 -13 -267 -11
-23 -19 -25 -95 -30 -45 -3 -82 -8 -82 -12 0 -5 0 -15 0 -23 0 -12 18 -15 100
-15 98 0 100 0 114 28 16 31 26 210 25 431 -1 159 -10 194 -55 211 -14 6 -114
10 -222 10 -155 -1 -203 -4 -224 -16z"/>
<path d="M1490 1253 c-53 -15 -72 -143 -29 -189 18 -19 33 -24 76 -24 29 0 53
5 53 10 0 6 -20 10 -44 10 -40 0 -47 4 -65 34 -12 18 -21 44 -21 56 0 33 38
90 61 90 10 0 19 5 19 10 0 10 -22 11 -50 3z"/>
<path d="M1913 1213 c9 -2 25 -2 35 0 9 3 1 5 -18 5 -19 0 -27 -2 -17 -5z"/>
<path d="M990 920 c0 -5 7 -7 15 -4 8 4 15 8 15 10 0 2 -7 4 -15 4 -8 0 -15
-4 -15 -10z"/>
<path d="M4490 1531 c-5 -11 -10 -73 -10 -139 0 -65 -3 -121 -6 -125 -4 -3
-23 2 -43 12 -58 29 -106 34 -164 16 -80 -24 -120 -67 -150 -164 -30 -95 -15
-205 38 -276 57 -77 169 -96 260 -44 l55 31 11 -26 c11 -23 18 -26 64 -26 28
0 56 5 63 12 9 9 12 106 12 374 0 405 6 374 -75 374 -34 0 -47 -5 -55 -19z
m-45 -366 c34 -34 35 -38 35 -110 0 -109 -40 -165 -118 -165 -67 1 -112 59
-112 147 0 65 12 98 51 134 46 43 97 40 144 -6z"/>
<path d="M7553 1523 c-27 -19 -31 -67 -7 -101 12 -17 25 -22 58 -22 76 0 109
58 65 114 -24 31 -79 35 -116 9z"/>
<path d="M3130 1510 c-129 -22 -233 -103 -279 -220 -21 -52 -23 -70 -19 -176
6 -138 21 -176 94 -244 68 -63 122 -82 239 -88 81 -3 110 0 150 15 l50 19 3
58 3 58 -33 -5 c-18 -3 -53 -10 -78 -17 -74 -19 -169 8 -216 62 -52 59 -59 79
-58 173 0 79 3 95 26 130 56 87 120 119 220 112 35 -2 80 -9 101 -15 l37 -10
0 63 c0 59 -2 63 -27 73 -38 15 -158 22 -213 12z"/>
<path d="M5780 1491 c-6 -13 -10 -139 -10 -341 0 -202 4 -328 10 -341 9 -15
22 -19 65 -19 30 0 56 1 57 3 1 1 4 110 7 242 4 150 10 240 16 240 9 0 66 -82
254 -369 35 -53 72 -101 82 -106 31 -17 120 -12 135 8 10 13 13 87 14 337 0
367 0 365 -74 365 -23 0 -47 -5 -54 -12 -9 -9 -12 -74 -12 -229 0 -238 -4
-255 -49 -202 -24 28 -53 73 -206 313 -77 122 -88 130 -162 130 -51 0 -64 -3
-73 -19z"/>
<path d="M7238 1430 c-60 -21 -61 -22 -68 -78 -5 -44 -7 -47 -45 -58 -38 -10
-40 -13 -40 -50 0 -36 2 -39 38 -47 45 -11 45 -11 50 -187 3 -150 9 -167 65
-205 29 -20 49 -25 99 -25 75 0 95 15 91 69 -2 27 -8 37 -23 39 -57 8 -67 14
-81 47 -19 46 -19 214 0 240 8 11 31 21 57 24 44 6 44 6 44 46 0 40 0 40 -44
46 -54 7 -71 28 -71 90 0 60 -13 69 -72 49z"/>
<path d="M3666 1298 c-65 -12 -127 -57 -162 -115 -25 -43 -28 -57 -28 -138 1
-102 9 -127 56 -180 102 -117 318 -114 421 5 58 68 75 180 42 280 -23 71 -94
131 -172 147 -67 14 -90 14 -157 1z m143 -114 c31 -22 61 -90 61 -139 0 -51
-37 -126 -70 -143 -34 -18 -118 -8 -143 17 -11 10 -25 44 -32 76 -26 110 29
205 119 205 23 0 52 -7 65 -16z"/>
<path d="M4928 1297 c-62 -16 -131 -74 -158 -133 -15 -35 -20 -68 -20 -131 0
-73 4 -92 26 -133 48 -88 128 -125 256 -118 110 6 150 27 146 78 -3 39 3 37
-111 24 -68 -8 -131 9 -153 40 -19 27 -18 72 2 80 9 3 81 6 160 6 l144 0 0 64
c0 116 -54 196 -151 221 -63 17 -77 17 -141 2z m115 -96 c16 -6 29 -23 37 -47
17 -51 -1 -64 -95 -64 -78 0 -94 9 -87 46 10 55 84 88 145 65z"/>
<path d="M6676 1294 c-38 -7 -73 -19 -78 -26 -9 -15 -11 -82 -2 -91 4 -3 17 1
29 9 13 9 57 18 97 21 65 5 76 3 101 -17 29 -23 35 -51 13 -69 -7 -6 -51 -16
-97 -22 -139 -17 -202 -70 -203 -170 0 -86 62 -149 148 -149 45 0 117 28 131
50 11 17 25 11 37 -15 10 -22 17 -25 64 -25 42 0 55 4 64 19 13 26 13 267 -1
346 -14 81 -58 128 -137 144 -64 13 -78 13 -166 -5z m172 -309 c6 -90 -110
-142 -161 -73 -43 58 20 121 113 116 45 -3 45 -3 48 -43z"/>
<path d="M7993 1297 c-67 -15 -133 -63 -157 -113 -10 -21 -23 -47 -27 -56 -5
-10 -9 -46 -9 -80 0 -166 103 -268 270 -268 113 1 181 36 238 125 21 33 27 55
30 127 4 76 1 93 -19 135 -13 26 -34 58 -47 70 -62 58 -179 83 -279 60z m159
-126 c33 -29 33 -30 33 -124 0 -87 -2 -98 -24 -121 -28 -30 -67 -40 -121 -31
-62 10 -90 58 -90 152 0 70 1 73 38 113 35 35 44 40 85 40 37 0 53 -6 79 -29z"/>
<path d="M8718 1294 c-27 -8 -48 -19 -48 -23 0 -5 -13 -14 -29 -19 -26 -9 -30
-8 -35 14 -6 22 -11 24 -71 24 l-65 0 2 -247 3 -248 60 0 60 0 6 155 c4 115
10 163 22 187 36 70 107 85 151 32 26 -30 26 -33 26 -185 0 -88 4 -164 10
-175 9 -16 22 -19 75 -19 l65 0 0 193 c0 166 -2 198 -18 228 -27 53 -52 76
-97 88 -50 14 -58 13 -117 -5z"/>
<path d="M7542 1043 l3 -248 44 -3 c25 -2 55 -1 68 3 l23 5 0 245 0 245 -70 0
-70 0 2 -247z"/>
<path d="M5358 1099 c-23 -13 -25 -74 -2 -83 20 -8 208 -8 228 0 19 7 22 64 4
82 -15 15 -205 16 -230 1z"/>
</g>
</svg>
